<?xml version="1.0" encoding="UTF-8"?><svg id="a" xmlns="http://www.w3.org/2000/svg" viewBox="0 0 250 157.19"><path d="m36.55,84.93s0,0,0,0c5.31,0,10.62.01,15.92-.02.77,0,1.01.23,1,1-.04,3.44,0,6.87.16,10.31.06,1.38.05,2.76.13,4.15.17,3.18.43,6.35.39,9.54-.04,2.6.13,5.2.3,7.79.2,2.98.38,5.96.5,8.94.11,2.76.49,5.5.7,8.25.12,1.54.79,2.77,2.23,3.56,1.66.92,3.42,1.58,5.23,2.07,2.23.6,4.47,1.17,6.79,1.39,1.73.16,3.43.49,5.16-.02,1.07-.31,1.57-.85,1.74-1.94.23-1.45.25-2.91.38-4.36.15-1.6.1-3.2.24-4.8.22-2.5.05-5.03.17-7.55.19-4.07.13-8.15.14-12.22.05-11.56.2-23.13-.09-34.7-.09-3.45-.02-6.91-.01-10.37,0-.73.04-1.47.04-2.2.01-2.62-.28-5.23-.23-7.85.05-2.55.06-5.09-.11-7.64-.18-2.79,0-5.59-.16-8.39-.18-3.07-.2-6.15-.2-9.22,0-2.63-.19-5.25-.36-7.87-.06-1.03-.56-1.65-1.46-1.73-.69-.06-1.4-.08-2.08.03-3.83.65-7.49,1.91-11.11,3.28-2.43.92-4.8,1.98-7.09,3.2-.87.46-1.95.94-2.03,2.01-.14,1.76-.61,3.46-.58,5.25.08,4.85-.11,9.71.21,14.55.08,1.24.06,2.49.17,3.73.28,3.01-.02,6.04.29,9.04.05.52-.25.64-.74.58-.93-.11-1.87-.21-2.81-.21-2.69-.01-5.37-.15-8.06-.34-2.49-.18-4.98-.25-7.47-.35-.66-.02-.8-.24-.61-.88.63-2.1,1.2-4.22,1.79-6.34.53-1.9,1.06-3.8,1.58-5.7.89-3.27,1.73-6.56,2.68-9.82.65-2.22,1.17-4.48,1.89-6.68.37-1.13.59-2.36.85-3.54.33-1.5.78-2.98,1.12-4.47.42-1.84.82-3.7,1.07-5.57.08-.58.41-1.09.28-1.75-.26-1.39-1.18-2.31-2.06-3.24-2.24-2.4-4.85-4.37-7.5-6.29-2.07-1.49-4.21-2.88-6.52-3.99-1.44-.69-2.21-.43-3.03.94-.81,1.35-1.21,2.88-1.81,4.32-.99,2.36-1.82,4.77-2.72,7.16-.61,1.62-.88,3.34-1.7,4.9-.37.7-.64,1.53-.81,2.28-.32,1.46-.79,2.84-1.31,4.25-.97,2.62-1.8,5.29-2.56,7.98-.5,1.78-.96,3.56-1.51,5.33-1.42,4.63-2.78,9.27-4.11,13.93-2.45,8.55-4.96,17.09-6.54,25.86-.28,1.55.19,2.44,1.69,2.93,2.15.7,4.4.85,6.63,1.01,3.7.26,7.41.45,11.12.51,4.92.09,9.84.02,14.76.02Z" style="fill:#552e85;"/><path d="m154.52,157.19c-.06-.54-.41-.66-.88-.66-.94,0-1.89-.03-2.83,0-2.31.07-4.6-.16-6.9-.22-2.43-.06-4.88-.13-7.3-.34-3.47-.3-6.95-.47-10.42-.76-2.7-.23-5.41-.34-8.12-.54-1.96-.14-3.91-.32-5.87-.51-2.19-.2-4.37-.43-6.56-.65-3.02-.31-6.04-.67-9-1.38-1.54-.37-1.79-.93-2-2.52-.65-5.02-.08-10.06-.32-15.08-.26-5.38-.22-10.76-.09-16.13.17-7.27-.07-14.53.15-21.79.11-3.66-.04-7.32.16-10.97.31-5.65.19-11.3.35-16.95.07-2.52,0-5.04.13-7.56.16-2.87.22-5.75.36-8.62.1-2.05.02-4.1.13-6.15.2-3.89.36-7.79.61-11.68.12-1.98.17-3.98.38-5.96.16-1.51.22-3.03.52-4.52.19-.98.71-1.65,1.79-1.79,1.71-.22,3.41-.37,5.13-.15,1.29.16,2.6.13,3.9.18,2.79.11,5.55.58,8.32.7,2.61.11,5.17.54,7.76.72,2.9.2,5.77.65,8.66,1.01,2.44.3,4.88.6,7.31.95,1.88.26,3.75.6,5.63.84,2.77.35,5.51.85,8.25,1.34,1.68.3,3.37.65,4.99,1.24.72.26,1.13.76,1.32,1.48.56,2.11.79,4.29,1.3,6.4.44,1.8.51,3.65.87,5.46.36,1.81.53,3.68.78,5.53.57,4.31,1.07,8.62,1.7,12.92.35,2.4.57,4.82,1.01,7.21.32,1.75.3,3.52.64,5.26.29,1.47.18,3,.45,4.44.39,2.16.68,4.34.94,6.51.25,2.07.59,4.12.71,6.21.09,1.57.39,3.12.58,4.68.34,2.88.65,5.76.99,8.63.31,2.62.78,5.23.94,7.86.15,2.4.51,4.77.74,7.15.22,2.28.48,4.55.76,6.82.22,1.8.34,3.63.54,5.44.3,2.69.49,5.38.8,8.07.17,1.45.24,2.92.35,4.38.24,3.34.54,6.67.55,10.02,0,1.32.07,2.6-1.19,3.46h-19.01Zm-32.24-19.98c4.62.06,9.01.09,13.38-.37,3.16-.33,6.34-.38,9.49-.92,2.65-.46,5.37-.49,7.89-1.65,1.13-.52,1.31-.62,1.32-1.88.01-1.47.02-2.94.02-4.41,0-3.49.03-6.98-.2-10.47-.19-2.83-.62-5.66-.62-8.5,0-2.44-.46-4.84-.55-7.27-.08-2.38-.37-4.74-.63-7.11-.15-1.38-.17-2.78-.32-4.17-.22-1.95-.66-3.88-.54-5.86.02-.27-.04-.55-.08-.82-.19-1.39-.57-2.78-.54-4.16.06-2.32-.59-4.53-.75-6.8-.16-2.26-.5-4.51-.79-6.77-.22-1.74-.47-3.48-.74-5.21-.24-1.57-.53-3.14-.75-4.71-.1-.71-.43-1.21-1.09-1.43-1.09-.37-2.18-.76-3.3-1.03-3.61-.87-7.23-1.76-10.87-2.51-3.39-.7-6.81-1.3-10.24-1.81-2.92-.44-5.85-.92-8.82-.88-1.29.01-1.43.09-1.53,1.37-.3,3.8-.63,7.6-.82,11.4-.15,2.93-.21,5.86-.34,8.79-.12,2.79-.21,5.58-.33,8.37-.14,3.24.02,6.48-.18,9.72-.17,2.85.02,5.7-.15,8.56-.18,3.12-.12,6.26-.16,9.39-.11,8.54-.13,17.08.12,25.62.04,1.42-.13,2.85.14,4.27.11.55.25.89.82.94,1.16.11,2.31.28,3.47.3,2.64.04,5.28.01,7.68.01Z" style="fill:#552e85;"/><path d="m247.72,134.71c-.19,0-.31.1-.38.27-.64,1.49-2.04,2.15-3.32,2.88-4.27,2.43-8.75,4.43-13.39,6.05-.65.23-1.33.4-2,.57-.84.2-1.3-.05-1.64-.85-.5-1.18-.72-2.4-.8-3.69-.13-2.02-.41-4.03-.61-6.04-.04-.41-.02-.83-.01-1.25.07-2.86-.09-5.71-.21-8.56-.18-4.1-.26-8.19-.32-12.29-.14-8.76-.17-17.53-.14-26.29,0-.91-.11-.96-1.03-.82-2.6.38-5.2.72-7.8,1.07-2.38.32-4.76.65-7.15.94-2.55.32-5.11.6-7.66.89-2.36.27-4.72.54-7.08.79-1.29.14-2.59.3-3.88.35-2.77.09-5.53.46-8.31.36-.94-.03-1.88-.08-2.8-.32-.96-.25-1.44-.96-1.5-1.95-.08-1.28.08-2.55.22-3.81.39-3.48,1.03-6.93,1.59-10.39.61-3.78,1.46-7.52,2.07-11.29.24-1.52.53-3.04.89-4.51.5-2.03.64-4.11,1.15-6.13.43-1.66.77-3.36.99-5.09.15-1.18.7-2.35.96-3.54.17-.74.21-1.5.22-2.27,0-.54.27-1.11.49-1.51.53-1,.42-2.08.7-3.09.66-2.35,1.18-4.73,1.72-7.11.22-.96.25-1.98.53-2.91.51-1.7.86-3.47,1.71-5.04.5-.91,1.51-1.38,2.47-1.74,3.79-1.42,7.69-2.48,11.72-2.99,1.22-.16,2.5-.24,3.72.14,1.23.39,1.67,1.06,1.7,2.34.06,3-.4,5.94-.84,8.89-.57,3.87-1.19,7.73-1.85,11.58-.64,3.67-1.36,7.32-2.06,10.98-.78,4.07-1.59,8.12-2.33,12.2-.11.6-.24,1.2-.37,1.8-.14.65.06.87.7.82,1.6-.12,3.2-.26,4.8-.32,3.82-.14,7.63-.37,11.44-.65,1.05-.08,2.11-.03,3.17-.04.62,0,.92-.12.9-.94-.04-1.88-.14-3.77-.25-5.64-.1-1.63-.08-3.27-.15-4.9-.18-3.97-.05-7.95-.19-11.92-.14-3.93-.2-7.86-.35-11.79-.21-5.52-.05-11.03-.11-16.55-.03-3.07.42-6.12.52-9.19.04-1.14,1.16-1.9,2.65-2,1.12-.08,2.2.17,3.28.36,2.75.49,5.44,1.25,8.07,2.18,1.75.62,3.48,1.3,5.08,2.26.9.54,1.48,1.21,1.63,2.33.21,1.65.33,3.3.44,4.95.26,4.17.44,8.34.53,12.52.07,2.98.27,5.96.36,8.95.1,3.43.2,6.86.32,10.28.12,3.44.24,6.88.35,10.32.06,1.93-.03,3.88.14,5.8.24,2.77,0,5.54.17,8.3.18,3.12.2,6.25.33,9.37.28,6.51.05,13.03.15,19.54,0,.47-.03.93.65.89v36.46Z" style="fill:#552e85;"/><path d="m36.55,84.93c-4.92,0-9.84.06-14.76-.02-3.71-.06-7.42-.25-11.12-.51-2.23-.16-4.48-.31-6.63-1.01-1.5-.49-1.97-1.38-1.69-2.93,1.57-8.77,4.09-17.31,6.54-25.86,1.33-4.65,2.69-9.3,4.11-13.93.54-1.77,1-3.55,1.51-5.33.76-2.69,1.6-5.36,2.56-7.98.52-1.4.98-2.78,1.31-4.25.16-.75.44-1.58.81-2.28.82-1.56,1.1-3.28,1.7-4.9.89-2.39,1.72-4.8,2.72-7.16.6-1.44,1-2.96,1.81-4.32.82-1.37,1.6-1.62,3.03-.94,2.31,1.1,4.45,2.49,6.52,3.99,2.66,1.91,5.26,3.89,7.5,6.29.87.94,1.8,1.86,2.06,3.24.13.67-.2,1.17-.28,1.75-.25,1.87-.65,3.73-1.07,5.57-.34,1.49-.79,2.97-1.12,4.47-.26,1.19-.48,2.42-.85,3.54-.72,2.21-1.24,4.46-1.89,6.68-.95,3.26-1.79,6.55-2.68,9.82-.52,1.9-1.05,3.8-1.58,5.7-.59,2.11-1.16,4.23-1.79,6.34-.19.64-.05.85.61.88,2.49.09,4.98.17,7.47.35,2.68.19,5.37.33,8.06.34.94,0,1.88.1,2.81.21.49.06.79-.06.74-.58-.31-3.01-.01-6.03-.29-9.04-.11-1.24-.09-2.49-.17-3.73-.32-4.84-.13-9.7-.21-14.55-.03-1.79.44-3.49.58-5.25.09-1.07,1.16-1.55,2.03-2.01,2.3-1.21,4.66-2.27,7.09-3.2,3.62-1.37,7.28-2.63,11.11-3.28.68-.11,1.39-.09,2.08-.03.89.08,1.39.7,1.46,1.73.16,2.62.36,5.24.36,7.87,0,3.07.01,6.16.2,9.22.17,2.8-.02,5.6.16,8.39.17,2.55.16,5.1.11,7.64-.05,2.62.24,5.23.23,7.85,0,.73-.04,1.47-.04,2.2,0,3.46-.07,6.91.01,10.37.29,11.56.14,23.13.09,34.7-.02,4.07.05,8.15-.14,12.22-.12,2.52.05,5.04-.17,7.55-.14,1.6-.09,3.2-.24,4.8-.13,1.45-.15,2.92-.38,4.36-.17,1.09-.67,1.63-1.74,1.94-1.73.51-3.44.17-5.16.02-2.32-.21-4.56-.79-6.79-1.39-1.82-.49-3.57-1.15-5.23-2.07-1.44-.79-2.11-2.02-2.23-3.56-.21-2.75-.59-5.49-.7-8.25-.12-2.98-.3-5.96-.5-8.94-.17-2.6-.34-5.19-.3-7.79.04-3.19-.22-6.36-.39-9.54-.08-1.38-.06-2.77-.13-4.15-.15-3.43-.2-6.87-.16-10.31,0-.76-.23-1-1-1-5.31.03-10.62.02-15.92.02,0,0,0,0,0,0Z" style="fill:#552e85;"/></svg>