<svg width="98" height="79" viewBox="0 0 98 79" fill="none" xmlns="http://www.w3.org/2000/svg">
<g id="Logo" clip-path="url(#clip0_0_1026)">
<path id="Vector" d="M8.73303 23.9335C8.73303 23.9335 11.7666 17.6938 23.1288 13.143C23.1288 13.143 34.7054 7.29441 37.9412 6.89147C41.177 6.48853 55.156 0.639967 57.6564 2.15099C60.1568 3.66202 66.6285 -3.05168 72.3647 2.57764C72.3647 2.57764 77.4758 5.38044 61.9341 13.1489C46.3923 20.9173 34.6012 23.9394 34.6012 23.9394C34.6012 23.9394 14.4202 28.1466 9.64617 26.1911L8.73303 23.9335Z" fill="#F4EC49"/>
<path id="Vector_2" d="M74.8223 2.31691C74.8223 2.31691 80.6566 21.818 69.2393 33.3196C63.3805 39.2156 52.0796 44.8212 40.3681 44.2286C29.245 43.6657 17.7909 37.3905 8.83728 25.5986C8.83728 25.5986 10.9639 26.9674 14.7328 26.76C25.9908 26.1259 49.665 24.7038 69.656 8.40249C71.7335 6.70777 72.8244 4.33754 74.8223 2.31691Z" fill="#CBB8DA"/>
<path id="Vector_3" d="M20.6222 37.8053C19.4946 37.029 8.89238 26.9022 9.18655 25.6104C11.6563 25.6104 18.5447 37.4142 27.3022 36.792C36.9239 36.1106 42.5498 33.3966 49.9714 30.339C54.8435 28.3362 59.5746 26.0193 64.4039 23.892C58.3428 28.1229 51.8651 31.6427 44.8664 34.2499C37.9412 36.8335 30.8935 38.0601 23.3984 37.9534C23.3371 37.9534 23.3126 38.0305 23.3678 38.0601C26.4136 39.8378 29.3246 41.5858 33.112 41.1295C41.416 40.1281 49.2972 37.9356 56.7004 34.161C56.8904 34.0662 57.1171 34.0307 57.4603 33.9299C55.1744 36.6913 48.5128 39.6481 37.929 42.6939C42.2802 44.4301 57.5461 42.0361 66.2301 34.007C74.3197 26.5229 76.4401 17.0479 75.8824 6.66036C78.0397 17.8479 76.5627 28.1288 67.2904 36.2172C65.9727 37.3668 65.4273 38.2793 66.273 39.8022C66.4017 40.0392 66.4262 40.3296 66.5549 40.7977C59.0721 43.3694 51.6506 45.9233 44.3332 48.4417C44.0697 48.258 43.9042 48.1988 43.8919 48.1217C43.5855 45.9352 42.2311 45.5263 40.0984 45.4848C32.9343 45.3545 26.4749 41.8228 20.6222 37.8053Z" fill="#542D83"/>
<path id="Vector_4" d="M21.7927 26.997C21.0389 27.1214 15.7807 27.0207 15.0146 27.074C14.9043 26.914 9.75031 26.357 9.64613 26.1911C9.90965 25.9837 10.5838 25.9778 10.7921 26.0074C15.9829 26.6652 21.2534 25.806 25.5249 22.8787C27.9824 21.1899 30.4951 19.4715 32.2478 18.4641C32.6707 18.2212 33.1242 18.0257 33.6084 17.8894C30.8138 20.3248 27.0019 21.5158 24.5566 24.6919C28.6811 25.5571 34.6073 22.1202 39.0259 16.7457C38.5234 17.7886 37.935 18.8078 37.5244 19.8863C37.0587 21.1247 37.7696 21.8832 39.0994 21.5929C41.943 20.9766 42.5191 20.0996 42.3843 16.7991C43.1994 17.4627 44.0206 18.6004 45.0686 18.8552C46.1104 19.11 47.4403 18.6182 48.5434 18.2093C49.7384 17.7649 49.7262 16.9827 48.5863 16.3961C47.1338 15.6436 45.6446 14.968 44.1615 14.1266C49.0643 15.6258 53.9609 17.119 58.9679 13.6111C59.1395 13.4926 59.1088 13.2259 58.9127 13.1489C56.4491 12.1771 54.2183 12.7222 52.0672 12.6985C49.7875 12.6748 47.5015 12.8882 45.2279 12.9296C50.4432 12.3726 55.7137 12.1001 60.8554 11.152C63.9135 10.589 66.8 9.04838 69.6743 7.7566C70.5629 7.35366 71.2799 6.40556 71.8499 5.56413C72.763 4.2131 72.2237 3.28278 70.5813 3.40129C69.3066 3.4961 68.0318 3.83978 66.8062 4.23087C64.5815 4.93602 62.3937 5.75375 60.1384 6.41149C63.0004 4.68122 66.5671 4.24865 69.4353 2.10358C69.8152 1.81916 69.7478 1.2266 69.3004 1.04883C67.1432 0.195544 65.1515 0.562931 63.3804 1.27993C60.071 2.61319 56.9455 4.37901 53.7464 5.96707C53.2071 6.23372 52.6801 6.54185 52.0121 6.58926C53.1091 5.84263 54.2428 5.14341 55.2847 4.32568C55.493 4.14791 55.6463 3.91682 55.7811 3.67387C55.9894 3.30055 55.8179 2.83243 55.4072 2.67244C55.0641 2.54208 54.727 2.43542 54.4206 2.49467C50.6209 3.22352 46.7968 3.97607 44.946 7.92252C44.805 8.22472 44.5415 8.4736 44.0819 8.62174C44.3822 8.04695 44.8847 7.48995 44.9215 6.89739C44.9521 6.41149 44.5415 5.54043 44.1554 5.44562C42.1453 4.93602 39.7981 6.84406 39.7797 8.51507C38.8298 8.25435 37.7634 7.66772 36.7768 7.77438C35.6185 7.89289 34.0925 8.12399 33.4368 9.11949C33.3265 9.29133 33.3326 9.49872 33.449 9.66464C34.2764 10.7964 36.3968 11.0572 37.8738 11.7564C37.8676 11.9401 37.8615 12.1238 37.8615 12.3134C33.3142 9.97277 29.0059 9.64686 24.8876 12.823C24.5873 13.0541 24.7834 13.7296 25.1695 13.7296L37.3345 13.5281C32.6952 13.9133 28.1295 14.2866 23.5577 14.6658C18.465 15.0925 14.6653 17.8242 11.2518 21.1958C10.9699 21.4743 10.8963 21.9484 10.7921 22.3928C10.7492 22.5824 10.8596 22.7661 11.0495 22.8195C11.5459 22.9617 12.0546 23.1572 12.4591 23.0328C16.2158 21.8358 19.9358 20.544 23.6619 19.2759C25.145 18.7723 26.6281 18.2567 28.1602 17.8597C22.2707 20.941 15.2598 21.7825 10.0322 26.3689C8.13853 25.5867 7.55633 24.3008 8.95361 22.5765C10.4244 20.7573 12.1772 19.0389 14.1138 17.6938C21.8663 12.3075 30.5993 8.7995 39.5407 5.7419C47.5261 3.0102 55.6769 0.85921 64.1403 0.112586C66.6468 -0.112587 69.2392 -3.89991e-07 71.7334 0.355535C74.9509 0.817731 75.9437 3.07538 73.7681 5.36266C71.5189 7.72697 69.0492 10.3224 66.2117 11.9815C58.9311 16.2361 52.3859 19.6967 43.279 22.4284C35.8146 24.6623 29.5636 25.4267 21.7927 26.997Z" fill="#542D83"/>
<path id="Vector_5" d="M18.1463 75.5335C17.1229 76.2683 16.2771 76.9675 15.3395 77.5245C11.9505 79.5511 7.39703 79.3081 4.15508 76.9734C0.692506 74.4847 -0.772193 70.242 0.392212 66.1C1.51372 62.1298 4.90888 59.2204 8.8985 58.8056C15.6827 58.1004 20.9593 62.6631 20.9654 69.2405C20.9654 71.8182 20.9593 74.3958 20.9715 76.9734C20.9777 77.9393 20.9286 78.9585 19.6233 78.9644C18.3424 78.9704 18.2015 78.0045 18.226 77.0031C18.2383 76.5705 18.1831 76.132 18.1463 75.5335ZM18.226 68.7843C18.2689 64.7608 14.8002 61.4128 10.5225 61.3536C6.36132 61.2943 2.80682 64.6363 2.69038 68.7072C2.58007 72.7603 6.14682 76.2979 10.4061 76.3572C14.5673 76.4164 18.1831 72.9144 18.226 68.7843Z" fill="#542D83"/>
<path id="Vector_6" d="M79.9578 75.3024C77.3164 77.6134 74.816 79.0415 71.5312 78.8874C65.9727 78.6326 61.7379 74.4373 61.6889 68.9206C61.6399 63.4749 65.8685 59.007 71.3289 58.7404C77.7148 58.4263 82.5808 62.9061 82.5992 69.1102C82.6053 71.7411 82.5869 74.378 82.5992 77.009C82.6053 77.9867 82.5501 78.9881 81.2264 78.9585C80.0375 78.9289 79.9333 77.9867 79.9517 77.0742C79.9639 76.6298 79.9578 76.1853 79.9578 75.3024ZM64.4222 68.885C64.4222 72.9559 67.8786 76.3276 72.0889 76.3631C76.2685 76.3987 79.872 72.9203 79.9272 68.7902C79.9823 64.8201 76.3972 61.3714 72.1992 61.3536C67.8725 61.3358 64.4222 64.6838 64.4222 68.885Z" fill="#542D83"/>
<path id="Vector_7" d="M43.1075 58.7523C45.6079 58.7108 47.7529 59.6293 49.5362 61.2292C50.002 61.6499 50.002 62.5565 50.2165 63.2379C49.4382 63.2024 48.476 63.4394 47.8999 63.0839C44.3822 60.9092 41.0851 60.7966 38.1741 62.918C34.8831 65.3178 34.1293 69.9635 36.5072 73.1989C38.9585 76.5409 43.7571 77.3705 47.2319 75.0536C48.2064 74.4077 49.3524 73.0211 50.3268 74.5558C51.2338 75.978 49.5853 76.772 48.5557 77.4297C44.9889 79.717 39.7614 79.4563 36.3907 76.9023C32.8301 74.2121 31.4696 69.6791 32.9649 65.4956C34.4051 61.4721 38.5173 58.7345 43.1075 58.7523Z" fill="#542D83"/>
<path id="Vector_8" d="M62.7799 16.9353C48.4577 25.5452 33.3204 32.1463 15.983 32.4841C15.6276 31.3464 14.0403 30.9908 15.3212 30.902C31.0529 29.8413 46.9869 24.1468 61.0333 17.6997C61.6093 17.439 62.1977 17.1901 62.7799 16.9353Z" fill="#542D83"/>
<path id="Vector_9" d="M94.9173 68.642C94.9173 65.8926 94.9357 63.149 94.9112 60.3996C94.9051 59.4278 95.1257 58.61 96.2962 58.6278C97.3932 58.6397 97.5526 59.4574 97.5464 60.3403C97.5342 65.9518 97.5342 71.5574 97.5403 77.169C97.5403 78.1052 97.4055 78.9881 96.1798 78.9289C94.9786 78.8755 94.9051 77.9867 94.9112 77.0564C94.9296 74.2536 94.9173 71.4449 94.9173 68.642Z" fill="#542D83"/>
<g id="Group">
<path id="Vector_10" d="M74.7364 3.97015C75.5699 6.86776 77.0224 15.288 71.8254 29.5746C70.6978 30.7479 57.8955 43.6361 41.318 43.6361C30.1642 43.6361 19.7459 37.8882 10.3265 26.5467C11.7421 26.9496 13.8748 27.317 16.9697 27.317C22.1482 27.317 28.5892 26.3037 36.1211 24.3068C56.0263 19.0212 69.325 12.0112 74.7364 3.97015ZM74.8958 2.57171C70.3485 10.4646 57.8464 17.919 35.9618 23.732C27.3206 26.0252 21.2106 26.7244 16.9758 26.7244C10.4306 26.7244 8.36536 25.0593 8.36536 25.0593C19.7091 39.5948 31.2367 44.2286 41.3303 44.2286C59.0783 44.2286 72.3709 29.8887 72.3709 29.8887C79.1428 11.3297 74.8958 2.57171 74.8958 2.57171Z" fill="#542D83"/>
</g>
<path id="Vector_11" d="M96.2228 57.1168C97.2009 57.1168 97.9939 56.3501 97.9939 55.4043C97.9939 54.4585 97.2009 53.6918 96.2228 53.6918C95.2446 53.6918 94.4517 54.4585 94.4517 55.4043C94.4517 56.3501 95.2446 57.1168 96.2228 57.1168Z" fill="#F4EC49"/>
</g>
<defs>
<clipPath id="clip0_0_1026">
<rect width="98" height="79" fill="white"/>
</clipPath>
</defs>
</svg>
