<svg width="34" height="34" viewBox="0 0 34 34" fill="none" xmlns="http://www.w3.org/2000/svg">
<g id="Group 118">
<circle id="Ellipse 2" cx="17" cy="17" r="17" fill="#F6EDFF"/>
<path id="Vector" d="M24.2627 24.8292L18.8536 19.4125C18.3707 19.7994 17.8153 20.1057 17.1875 20.3314C16.5596 20.5571 15.8915 20.6699 15.1832 20.6699C13.4285 20.6699 11.9435 20.0615 10.7284 18.8447C9.51266 17.6272 8.90479 16.1398 8.90479 14.3826C8.90479 12.6254 9.51266 11.138 10.7284 9.92051C11.9435 8.70367 13.4285 8.09525 15.1832 8.09525C16.9379 8.09525 18.4232 8.70367 19.6389 9.92051C20.854 11.138 21.4616 12.6254 21.4616 14.3826C21.4616 15.0919 21.3489 15.761 21.1235 16.3897C20.8982 17.0184 20.5923 17.5746 20.2059 18.0583L25.6392 23.4992C25.8162 23.6766 25.9048 23.8942 25.9048 24.1521C25.9048 24.4101 25.8082 24.6358 25.615 24.8292C25.4379 25.0066 25.2126 25.0952 24.9389 25.0952C24.6652 25.0952 24.4398 25.0066 24.2627 24.8292ZM15.1832 18.7354C16.3906 18.7354 17.417 18.3123 18.2625 17.4663C19.1074 16.6196 19.5298 15.5917 19.5298 14.3826C19.5298 13.1735 19.1074 12.1456 18.2625 11.2989C17.417 10.4528 16.3906 10.0298 15.1832 10.0298C13.9758 10.0298 12.9494 10.4528 12.1039 11.2989C11.259 12.1456 10.8366 13.1735 10.8366 14.3826C10.8366 15.5917 11.259 16.6196 12.1039 17.4663C12.9494 18.3123 13.9758 18.7354 15.1832 18.7354Z" fill="black" fill-opacity="0.38"/>
</g>
</svg>
