<svg width="28" height="28" viewBox="0 0 28 28" fill="none" xmlns="http://www.w3.org/2000/svg">
<g id="Geri qay&#196;&#177;t &#195;&#167;ubu&#196;&#159;u">
<path id="Vector" d="M18.7373 2.863C19.0653 3.19117 19.2496 3.63621 19.2496 4.10025C19.2496 4.56429 19.0653 5.00933 18.7373 5.3375L10.0748 14L18.7373 22.6625C19.056 22.9926 19.2324 23.4346 19.2284 23.8935C19.2245 24.3523 19.0404 24.7912 18.7159 25.1157C18.3915 25.4401 17.9526 25.6242 17.4937 25.6282C17.0349 25.6322 16.5928 25.4558 16.2628 25.137L6.36301 15.2373C6.03493 14.9091 5.85063 14.464 5.85063 14C5.85063 13.536 6.03493 13.0909 6.36301 12.7628L16.2628 2.863C16.5909 2.53493 17.036 2.35062 17.5 2.35062C17.964 2.35062 18.4091 2.53493 18.7373 2.863Z" fill="white"/>
</g>
</svg>
