<svg width="18" height="18" viewBox="0 0 18 18" fill="none" xmlns="http://www.w3.org/2000/svg">
<g id="Message icon" clip-path="url(#clip0_0_70)">
<path id="Vector" fill-rule="evenodd" clip-rule="evenodd" d="M0 1.8C0 0.804 0.8052 0 1.8 0H16.2C17.1948 0 18 0.804 18 1.8V12.5916C18 13.5876 17.1948 14.3916 16.2 14.3916H9.2004L4.56 17.868C4.47086 17.9349 4.36486 17.9756 4.25388 17.9856C4.14291 17.9956 4.03134 17.9745 3.93167 17.9247C3.83201 17.8748 3.74819 17.7982 3.68961 17.7034C3.63103 17.6087 3.6 17.4994 3.6 17.388V14.3904H1.8C0.8052 14.3904 0 13.5864 0 12.5904V1.8ZM4.8 4.7964H13.2V5.9964H4.8V4.7964ZM4.8 8.394H10.8V9.594H4.8V8.394Z" fill="#B893DD"/>
</g>
<defs>
<clipPath id="clip0_0_70">
<rect width="18" height="18" fill="white"/>
</clipPath>
</defs>
</svg>
