<?xml version="1.0" encoding="utf-8"?>
<!-- Generator: Adobe Illustrator 27.3.1, SVG Export Plug-In . SVG Version: 6.00 Build 0)  -->
<svg version="1.1" id="Layer_1" xmlns="http://www.w3.org/2000/svg" xmlns:xlink="http://www.w3.org/1999/xlink" x="0px" y="0px"
	 viewBox="0 0 98 79" style="enable-background:new 0 0 98 79;" xml:space="preserve">
<style type="text/css">
	.st0{clip-path:url(#SVGID_00000093155439525910882440000018161984526112171938_);}
	.st1{fill:#F4EC49;}
	.st2{fill:#CBB8DA;}
	.st3{fill:#542D83;}
</style>
<g>
	<defs>
		<rect id="SVGID_1_" width="98" height="79"/>
	</defs>
	<clipPath id="SVGID_00000075859163777696479100000004518941676878599083_">
		<use xlink:href="#SVGID_1_"  style="overflow:visible;"/>
	</clipPath>
	<g id="Logo" style="clip-path:url(#SVGID_00000075859163777696479100000004518941676878599083_);">
		<path id="Vector" class="st1" d="M1.6,40.1c0,0,4.3-8.8,20.2-15.2c0,0,16.3-8.2,20.8-8.8c4.5-0.6,24.2-8.8,27.7-6.7
			C73.9,11.6,83,2.2,91,10.1c0,0,7.2,3.9-14.7,14.9C54.5,35.9,37.9,40.1,37.9,40.1S9.6,46,2.9,43.3L1.6,40.1z"/>
		<path id="Vector_2" class="st2" d="M94.5,9.7c0,0,8.2,27.4-7.8,43.6C78.4,61.6,62.5,69.5,46,68.6C30.4,67.8,14.3,59,1.7,42.4
			c0,0,3,1.9,8.3,1.6c15.8-0.9,49.1-2.9,77.2-25.8C90.1,15.9,91.7,12.6,94.5,9.7z"/>
		<path id="Vector_3" class="st3" d="M18.3,59.6C16.7,58.5,1.8,44.3,2.2,42.5c3.5,0,13.2,16.6,25.5,15.7c13.5-1,21.4-4.8,31.9-9.1
			c6.9-2.8,13.5-6.1,20.3-9.1C71.3,46,62.2,50.9,52.4,54.6c-9.7,3.6-19.6,5.4-30.2,5.2c-0.1,0-0.1,0.1,0,0.2c4.3,2.5,8.4,5,13.7,4.3
			c11.7-1.4,22.8-4.5,33.2-9.8c0.3-0.1,0.6-0.2,1.1-0.3c-3.2,3.9-12.6,8-27.5,12.3c6.1,2.4,27.6-0.9,39.8-12.2
			C93.8,43.7,96.8,30.4,96,15.8c3,15.7,1,30.2-12.1,41.6c-1.9,1.6-2.6,2.9-1.4,5c0.2,0.3,0.2,0.7,0.4,1.4
			c-10.5,3.6-21,7.2-31.2,10.7c-0.4-0.3-0.6-0.3-0.6-0.4c-0.4-3.1-2.3-3.6-5.3-3.7C35.6,70.2,26.5,65.3,18.3,59.6z"/>
		<path id="Vector_4" class="st3" d="M19.9,44.4c-1.1,0.2-8.5,0-9.5,0.1c-0.2-0.2-7.4-1-7.5-1.2C3.2,43,4.2,43,4.5,43
			c7.3,0.9,14.7-0.3,20.7-4.4c3.5-2.4,7-4.8,9.5-6.2c0.6-0.3,1.2-0.6,1.9-0.8c-3.9,3.4-9.3,5.1-12.7,9.6c5.8,1.2,14.1-3.6,20.3-11.2
			c-0.7,1.5-1.5,2.9-2.1,4.4c-0.7,1.7,0.3,2.8,2.2,2.4c4-0.9,4.8-2.1,4.6-6.7c1.1,0.9,2.3,2.5,3.8,2.9c1.5,0.4,3.3-0.3,4.9-0.9
			c1.7-0.6,1.7-1.7,0.1-2.5c-2-1.1-4.1-2-6.2-3.2c6.9,2.1,13.8,4.2,20.8-0.7c0.2-0.2,0.2-0.5-0.1-0.6c-3.5-1.4-6.6-0.6-9.6-0.6
			c-3.2,0-6.4,0.3-9.6,0.3c7.3-0.8,14.7-1.2,22-2.5c4.3-0.8,8.4-3,12.4-4.8c1.2-0.6,2.3-1.9,3.1-3.1c1.3-1.9,0.5-3.2-1.8-3
			c-1.8,0.1-3.6,0.6-5.3,1.2c-3.1,1-6.2,2.1-9.4,3.1c4-2.4,9-3,13.1-6.1c0.5-0.4,0.4-1.2-0.2-1.5c-3-1.2-5.8-0.7-8.3,0.3
			c-4.7,1.9-9,4.4-13.5,6.6c-0.8,0.4-1.5,0.8-2.4,0.9c1.5-1,3.1-2,4.6-3.2c0.3-0.2,0.5-0.6,0.7-0.9c0.3-0.5,0.1-1.2-0.5-1.4
			c-0.5-0.2-1-0.3-1.4-0.2c-5.3,1-10.7,2.1-13.3,7.6c-0.2,0.4-0.6,0.8-1.2,1c0.4-0.8,1.1-1.6,1.2-2.4c0-0.7-0.5-1.9-1.1-2
			c-2.8-0.7-6.1,2-6.2,4.3c-1.3-0.4-2.8-1.2-4.2-1c-1.6,0.2-3.8,0.5-4.7,1.9c-0.2,0.2-0.1,0.5,0,0.8c1.2,1.6,4.1,2,6.2,2.9
			c0,0.3,0,0.5,0,0.8c-6.4-3.3-12.5-3.7-18.2,0.7c-0.4,0.3-0.1,1.3,0.4,1.3l17.1-0.3c-6.5,0.5-12.9,1.1-19.4,1.6
			c-7.2,0.6-12.5,4.4-17.3,9.2c-0.4,0.4-0.5,1.1-0.6,1.7c-0.1,0.3,0.1,0.5,0.4,0.6c0.7,0.2,1.4,0.5,2,0.3c5.3-1.7,10.5-3.5,15.8-5.3
			c2.1-0.7,4.2-1.4,6.3-2c-8.3,4.3-18.1,5.5-25.5,12c-2.7-1.1-3.5-2.9-1.5-5.3c2.1-2.6,4.5-5,7.3-6.9C20,23.8,32.3,18.8,44.9,14.5
			c11.2-3.8,22.7-6.9,34.6-7.9C83,6.3,86.6,6.5,90.1,7c4.5,0.6,5.9,3.8,2.9,7c-3.2,3.3-6.6,7-10.6,9.3c-10.2,6-19.4,10.8-32.2,14.7
			C39.6,41.1,30.9,42.2,19.9,44.4z"/>
		<path id="Vector_8" class="st3" d="M77.6,30.3C57.4,42.4,36.1,51.7,11.8,52.1c-0.5-1.6-2.7-2.1-0.9-2.2
			c22.1-1.5,44.5-9.5,64.3-18.6C75.9,31,76.7,30.6,77.6,30.3z"/>
		<g id="Group">
			<path id="Vector_10" class="st3" d="M94.4,12c1.2,4.1,3.2,15.9-4.1,36c-1.6,1.6-19.6,19.8-42.9,19.8c-15.7,0-30.3-8.1-43.6-24
				c2,0.6,5,1.1,9.3,1.1c7.3,0,16.3-1.4,26.9-4.2C68.1,33.2,86.8,23.3,94.4,12z M94.6,10.1c-6.4,11.1-24,21.6-54.7,29.8
				C27.7,43,19.1,44,13.2,44C4,44,1.1,41.7,1.1,41.7c15.9,20.4,32.2,27,46.3,27c25,0,43.6-20.2,43.6-20.2
				C100.6,22.4,94.6,10.1,94.6,10.1z"/>
		</g>
	</g>
</g>
</svg>
